HIERARCHY
ROOT Hips
{
	OFFSET 0.000000 0.000000 0.000000
	CHANNELS 6 Xposition Yposition Zposition Zrotation Yrotation Xrotation 
	JOINT LHipJoint
	{
		OFFSET 0.000000 0.000000 0.000000
		CHANNELS 3 Zrotation Yrotation Xrotation
		JOINT LeftUpLeg
		{
			OFFSET 1.363060 -1.794630 0.839290
			CHANNELS 3 Zrotation Yrotation Xrotation
			JOINT LeftLeg
			{
				OFFSET 2.448110 -6.726130 0.000000
				CHANNELS 3 Zrotation Yrotation Xrotation
				JOINT LeftFoot
				{
					OFFSET 2.562200 -7.039590 0.000000
					CHANNELS 3 Zrotation Yrotation Xrotation
					JOINT LeftToeBase
					{
						OFFSET 0.157640 -0.433110 2.322550
						CHANNELS 3 Zrotation Yrotation Xrotation
						End Site
						{
							OFFSET 0.000000 0.000000 0.000000
						}
					}
				}
			}
		}
	}
	JOINT RHipJoint
	{
		OFFSET 0.000000 0.000000 0.000000
		CHANNELS 3 Zrotation Yrotation Xrotation
		JOINT RightUpLeg
		{
			OFFSET -1.305520 -1.794630 0.839290
			CHANNELS 3 Zrotation Yrotation Xrotation
			JOINT RightLeg
			{
				OFFSET -2.542530 -6.985550 0.000000
				CHANNELS 3 Zrotation Yrotation Xrotation
				JOINT RightFoot
				{
					OFFSET -2.568260 -7.056230 0.000000
					CHANNELS 3 Zrotation Yrotation Xrotation
					JOINT RightToeBase
					{
						OFFSET -0.164730 -0.452590 2.363150
						CHANNELS 3 Zrotation Yrotation Xrotation
						End Site
						{
							OFFSET 0.000000 0.000000 0.000000
						}
					}
				}
			}
		}
	}
}
MOTION
Frames: 19
Frame Time: 0.008333
-9.650068 17.008757 -0.852033 3.877177 83.960558 11.956612 -9.596404 1.005467 5.329639 -13.021713 -8.627852 -30.355270 -2.403780 -0.221702 15.411586 0.451229 1.949574 -3.014978 0.369300 0.000000 -19.024900 10.641464 -4.394475 -1.635987 0.287525 -17.786086 -0.257000 -0.142287 -2.699209 36.905533 -0.862398 6.710889 30.843000 4.521400 0.000000 -86.830700
-9.429849 17.000319 -0.842687 11.348319 84.342393 19.057182 -9.531762 1.084320 5.228060 -14.182525 -8.520156 -29.531203 -2.470804 -0.129469 16.218951 0.388895 1.694841 -2.597038 0.366400 0.000000 -17.667400 10.884377 -4.211513 -1.841076 -1.004193 -18.994639 -1.415275 -0.332791 -2.771606 39.976079 -1.277066 3.672723 32.377854 2.929800 -0.000000 -81.884100
-9.213013 16.991679 -0.834360 18.642068 84.645933 26.012339 -9.417837 1.174185 5.111096 -15.294633 -8.305245 -28.703118 -2.545134 -0.053683 16.970733 0.329655 1.397213 -2.392309 0.345801 0.000000 -16.253599 11.143129 -4.010143 -2.020709 -2.120354 -20.010674 -2.635565 -0.480075 -2.859950 43.062001 -1.667383 0.222367 32.986777 0.916700 -0.000000 -75.859800
-8.999248 16.983718 -0.827776 25.244295 84.841807 32.318459 -9.273452 1.283466 4.990529 -16.309718 -8.016498 -27.878353 -2.621425 0.010220 17.649355 0.278902 1.084198 -2.407594 0.312000 -0.000000 -14.857600 11.396091 -3.793319 -2.170207 -3.024360 -20.782231 -3.930124 -0.607991 -2.970046 46.121512 -2.014176 -3.308539 32.636617 -1.204100 0.000000 -69.487600
-8.788203 16.977352 -0.823240 30.860885 84.928598 37.691707 -9.124364 1.406485 4.877223 -17.203371 -7.702092 -27.053474 -2.696043 0.062751 18.228143 0.241260 0.790940 -2.627470 0.271600 -0.000000 -13.550100 11.620047 -3.570977 -2.285386 -3.704563 -21.278748 -5.316728 -0.733117 -3.103748 49.114040 -2.304709 -6.587622 31.408413 -3.110800 -0.000000 -63.365900
-8.579406 16.973463 -0.821297 35.240504 84.928210 41.893144 -8.996800 1.531324 4.778316 -17.951721 -7.391277 -26.239074 -2.765158 0.102859 18.697788 0.217725 0.532368 -3.027861 0.228799 -0.000000 -12.385200 11.795676 -3.358726 -2.358163 -4.137431 -21.478379 -6.816571 -0.863377 -3.257734 51.998046 -2.532115 -9.376255 29.457083 -4.578299 0.000000 -57.852300
-8.372459 16.972634 -0.821554 38.477255 84.861644 45.019269 -8.895573 1.647867 4.699408 -18.565554 -7.129223 -25.416502 -2.828463 0.126578 19.026156 0.210572 0.342912 -3.565099 0.189100 -0.000000 -11.401100 11.924744 -3.165075 -2.386076 -4.350930 -21.392184 -8.433987 -0.999780 -3.426281 54.737299 -2.692489 -11.529238 26.952555 -5.492801 0.000000 -53.040799
-8.166958 16.975334 -0.824105 40.551944 84.752313 47.053498 -8.827645 1.750144 4.641129 -19.043154 -6.917783 -24.593748 -2.884374 0.132803 19.211445 0.217944 0.221277 -4.201910 0.152500 -0.000000 -10.606200 12.006868 -2.996583 -2.363734 -4.348801 -21.027905 -10.164781 -1.139127 -3.599069 57.289708 -2.785527 -13.015287 24.067123 -5.862000 0.000000 -48.924500
-7.962582 16.981648 -0.828237 41.670586 84.608523 48.195167 -8.784471 1.837185 4.603323 -19.412256 -6.769552 -23.754356 -2.934410 0.119812 19.230748 0.239653 0.182509 -4.889793 0.120000 0.000000 -9.993600 12.053700 -2.849914 -2.292178 -4.182145 -20.416646 -11.985535 -1.274949 -3.766451 59.616847 -2.811813 -13.850931 20.948034 -5.756900 0.000000 -45.376300
-7.759084 16.991583 -0.833576 41.963136 84.438938 48.563891 -8.762716 1.910576 4.580541 -19.691440 -6.663174 -22.894343 -2.979276 0.088536 19.082525 0.272309 0.213441 -5.588309 0.089700 0.000000 -9.535700 12.071448 -2.720704 -2.172930 -3.888058 -19.588260 -13.860233 -1.398985 -3.918276 61.676018 -2.775770 -14.107454 17.740729 -5.301100 -0.000001 -42.349400
-7.556338 17.004810 -0.839435 41.650138 84.245323 48.365909 -8.754128 1.973957 4.566815 -19.910140 -6.580107 -21.998653 -3.021011 0.039991 18.757905 0.312720 0.303990 -6.255334 0.060700 -0.000001 -9.200700 12.069287 -2.600785 -2.011159 -3.520517 -18.584025 -15.747499 -1.502888 -4.047169 63.431376 -2.684894 -13.877157 14.577440 -4.630200 -0.000000 -39.810700
-7.354257 17.020896 -0.845211 40.950842 84.030641 47.804357 -8.752272 2.031415 4.554743 -20.094370 -6.493143 -21.053829 -3.061659 -0.024040 18.254239 0.356425 0.434357 -6.853780 0.032700 0.000000 -8.956700 12.054211 -2.482290 -1.813773 -3.126807 -17.449532 -17.606625 -1.580104 -4.148317 64.854222 -2.550962 -13.273420 11.581077 -3.874600 0.000001 -37.780300
-7.152807 17.039272 -0.850418 40.071002 83.800722 47.069301 -8.752641 2.086846 4.536917 -20.266572 -6.373484 -20.047174 -3.103151 -0.101372 17.573638 0.398187 0.579027 -7.352245 0.006700 0.000001 -8.777600 12.031083 -2.358663 -1.588880 -2.744657 -16.231742 -19.402886 -1.627427 -4.219626 65.927552 -2.389327 -12.421372 8.855056 -3.139900 -0.000000 -36.296799
-6.951910 17.059316 -0.854613 39.206524 83.563478 46.345733 -8.751174 2.143460 4.508812 -20.444827 -6.201173 -18.970478 -3.147259 -0.190120 16.719642 0.433097 0.714814 -7.724281 -0.015100 -0.000000 -8.652100 12.003799 -2.224822 -1.344490 -2.401704 -14.977493 -21.116139 -1.645283 -4.261517 66.648850 -2.216933 -11.446583 6.467521 -2.494400 0.000000 -35.354200
-6.751642 17.080400 -0.857578 38.492283 83.331275 45.757402 -8.748107 2.203840 4.465833 -20.637376 -5.953174 -17.819788 -3.194932 -0.287598 15.705715 0.455709 0.812499 -7.952034 -0.030400 0.000000 -8.574200 11.972782 -2.078568 -1.088987 -2.109356 -13.728445 -22.730643 -1.636782 -4.275716 67.026349 -2.050076 -10.466395 4.441024 -1.969400 -0.000000 -34.853300
-6.551881 17.101840 -0.859212 38.026619 83.118117 45.399191 -8.744202 2.269761 4.407184 -20.846391 -5.618517 -16.600875 -3.246571 -0.391274 14.550894 0.461752 0.847892 -8.026010 -0.037000 0.000000 -8.549000 11.937658 -1.919674 -0.828826 -1.868350 -12.518624 -24.244348 -1.605994 -4.264908 67.078897 -1.901837 -9.575379 2.751715 -1.566400 0.000000 -34.602000
-6.352588 17.123129 -0.859546 37.873638 82.938498 45.334326 -8.741461 2.342285 4.334020 -21.068116 -5.195197 -15.323019 -3.301707 -0.498434 13.278789 0.448530 0.803722 -7.944086 -0.034000 -0.000000 -8.586299 11.896906 -1.749341 -0.569305 -1.673063 -11.372884 -25.658518 -1.556534 -4.231823 66.828224 -1.781071 -8.839485 1.343094 -1.269600 -0.000000 -34.379200
-6.153627 17.143776 -0.858759 38.057749 82.806905 45.592518 -8.743356 2.421977 4.249517 -21.291606 -4.686107 -14.009060 -3.359101 -0.605823 11.926095 0.414586 0.664547 -7.715550 -0.022299 0.000000 -8.692400 11.847865 -1.570532 -0.312621 -1.509141 -10.304934 -26.980695 -1.490728 -4.178549 66.294844 -1.692290 -8.293586 0.144166 -1.056400 -0.000000 -33.998000
-5.954907 17.163502 -0.857124 38.595141 82.736042 46.196699 -8.753392 2.508857 4.158080 -21.503493 -4.101901 -12.685364 -3.416952 -0.710037 10.534800 0.360474 0.423122 -7.357956 -0.004800 0.000000 -8.868500 11.787742 -1.386756 -0.059001 -1.362561 -9.319759 -28.218713 -1.409545 -4.106507 65.493035 -1.635908 -7.940833 -0.913188 -0.903800 0.000000 -33.347800
